<svg width="45" height="45" viewBox="0 0 45 45" fill="none" xmlns="http://www.w3.org/2000/svg">
<g clip-path="url(#clip0_158_738)">
<path d="M22.5 45C34.9277 45 45 34.9277 45 22.5C45 10.0723 34.9277 0 22.5 0C10.0723 0 0 10.0723 0 22.5C0 34.9277 10.0723 45 22.5 45ZM20.3906 30.2344V24.6094H14.7656C13.5967 24.6094 12.6562 23.6689 12.6562 22.5C12.6562 21.3311 13.5967 20.3906 14.7656 20.3906H20.3906V14.7656C20.3906 13.5967 21.3311 12.6562 22.5 12.6562C23.6689 12.6562 24.6094 13.5967 24.6094 14.7656V20.3906H30.2344C31.4033 20.3906 32.3438 21.3311 32.3438 22.5C32.3438 23.6689 31.4033 24.6094 30.2344 24.6094H24.6094V30.2344C24.6094 31.4033 23.6689 32.3438 22.5 32.3438C21.3311 32.3438 20.3906 31.4033 20.3906 30.2344Z" fill="#C3AAAA"/>
</g>
<defs>
<clipPath id="clip0_158_738">
<rect width="45" height="45" fill="white"/>
</clipPath>
</defs>
</svg>
